<svg width="24" xmlns="http://www.w3.org/2000/svg" height="24" id="screenshot-a8e3a9ae-f863-8071-8006-35056a655a02" viewBox="0 0 24 24" xmlns:xlink="http://www.w3.org/1999/xlink" fill="none" version="1.1"><g id="shape-a8e3a9ae-f863-8071-8006-35056a655a02" width="24" height="24" rx="0" ry="0" style="fill: rgb(0, 0, 0);"><g id="shape-a8e3a9ae-f863-8071-8006-35056a678232" style="display: none;"><g class="fills" id="fills-a8e3a9ae-f863-8071-8006-35056a678232"><rect width="24" height="24" x="0" stroke-linejoin="round" transform="matrix(1.000000, 0.000000, 0.000000, 1.000000, 0.000000, 0.000000)" style="fill: none;" ry="0" fill="none" stroke-linecap="round" rx="0" y="0"/></g><g fill="none" stroke-linejoin="round" stroke-linecap="round" id="strokes-e65be3ee-6db2-8003-8006-3a76866fcefc-a8e3a9ae-f863-8071-8006-35056a678232" class="strokes"><g class="inner-stroke-shape" transform="matrix(1.000000, 0.000000, 0.000000, 1.000000, 0.000000, 0.000000)"><defs><clipPath id="inner-stroke-render-2-a8e3a9ae-f863-8071-8006-35056a678232-0"><use href="#stroke-shape-render-2-a8e3a9ae-f863-8071-8006-35056a678232-0"/></clipPath><rect rx="0" ry="0" x="0" y="0" width="24" height="24" id="stroke-shape-render-2-a8e3a9ae-f863-8071-8006-35056a678232-0" style="fill: none; stroke-width: 3; stroke: rgb(0, 0, 0); stroke-opacity: 1;"/></defs><use href="#stroke-shape-render-2-a8e3a9ae-f863-8071-8006-35056a678232-0" clip-path="url('#inner-stroke-render-2-a8e3a9ae-f863-8071-8006-35056a678232-0')"/></g></g></g><g id="shape-a8e3a9ae-f863-8071-8006-35056a68bd1f"><g class="fills" id="fills-a8e3a9ae-f863-8071-8006-35056a68bd1f"><path d="M3.000,9.400C3.000,7.160,3.000,6.040,3.436,5.184C3.819,4.431,4.431,3.819,5.184,3.436C6.040,3.000,7.160,3.000,9.400,3.000L14.600,3.000C16.840,3.000,17.960,3.000,18.816,3.436C19.569,3.819,20.181,4.431,20.564,5.184C21.000,6.040,21.000,7.160,21.000,9.400L21.000,14.600C21.000,16.840,21.000,17.960,20.564,18.816C20.181,19.569,19.569,20.181,18.816,20.564C17.960,21.000,16.840,21.000,14.600,21.000L9.400,21.000C7.160,21.000,6.040,21.000,5.184,20.564C4.431,20.181,3.819,19.569,3.436,18.816C3.000,17.960,3.000,16.840,3.000,14.600ZM8.000,7.625L8.000,8.125" fill="none" stroke-linejoin="round" stroke-linecap="round" style="fill: none;"/></g><g fill="none" stroke-linejoin="round" stroke-linecap="round" id="strokes-e65be3ee-6db2-8003-8006-3a7686713491-a8e3a9ae-f863-8071-8006-35056a68bd1f" class="strokes"><g class="stroke-shape"><path d="M3.000,9.400C3.000,7.160,3.000,6.040,3.436,5.184C3.819,4.431,4.431,3.819,5.184,3.436C6.040,3.000,7.160,3.000,9.400,3.000L14.600,3.000C16.840,3.000,17.960,3.000,18.816,3.436C19.569,3.819,20.181,4.431,20.564,5.184C21.000,6.040,21.000,7.160,21.000,9.400L21.000,14.600C21.000,16.840,21.000,17.960,20.564,18.816C20.181,19.569,19.569,20.181,18.816,20.564C17.960,21.000,16.840,21.000,14.600,21.000L9.400,21.000C7.160,21.000,6.040,21.000,5.184,20.564C4.431,20.181,3.819,19.569,3.436,18.816C3.000,17.960,3.000,16.840,3.000,14.600ZM8.000,7.625L8.000,8.125" style="fill: none; stroke-width: 1.5; stroke: rgb(0, 0, 0); stroke-opacity: 1;"/></g></g></g><g id="shape-a8e3a9ae-f863-8071-8006-35056a696d5f"><g class="fills" id="fills-a8e3a9ae-f863-8071-8006-35056a696d5f"><path d="M8.000,16.375L8.000,10.750M12.000,16.375L12.000,13.500M12.000,13.500L12.000,10.750M12.000,13.500C12.000,12.212,13.222,11.500,14.400,11.500C16.000,11.500,16.000,12.875,16.000,14.375L16.000,16.375" fill="none" stroke-linejoin="round" stroke-linecap="round" style="fill: none;"/></g><g fill="none" stroke-linejoin="round" stroke-linecap="round" id="strokes-e65be3ee-6db2-8003-8006-3a7686719be0-a8e3a9ae-f863-8071-8006-35056a696d5f" class="strokes"><g class="stroke-shape"><path d="M8.000,16.375L8.000,10.750M12.000,16.375L12.000,13.500M12.000,13.500L12.000,10.750M12.000,13.500C12.000,12.212,13.222,11.500,14.400,11.500C16.000,11.500,16.000,12.875,16.000,14.375L16.000,16.375" style="fill: none; stroke-width: 1.5; stroke: rgb(0, 0, 0); stroke-opacity: 1;"/></g></g></g></g></svg>