<svg width="24" xmlns="http://www.w3.org/2000/svg" height="24" id="screenshot-a8e3a9ae-f863-8071-8006-350547a5b892" viewBox="0 0 24 24" xmlns:xlink="http://www.w3.org/1999/xlink" fill="none" version="1.1"><g id="shape-a8e3a9ae-f863-8071-8006-350547a5b892" width="24" height="24" rx="0" ry="0" style="fill: rgb(0, 0, 0);"><g id="shape-a8e3a9ae-f863-8071-8006-350547ac55ba" style="display: none;"><g class="fills" id="fills-a8e3a9ae-f863-8071-8006-350547ac55ba"><rect width="24" height="24" x="0" stroke-linejoin="round" transform="matrix(1.000000, 0.000000, 0.000000, 1.000000, 0.000000, 0.000000)" style="fill: none;" ry="0" fill="none" stroke-linecap="round" rx="0" y="0"/></g><g fill="none" stroke-linejoin="round" stroke-linecap="round" id="strokes-e65be3ee-6db2-8003-8006-3a768672661a-a8e3a9ae-f863-8071-8006-350547ac55ba" class="strokes"><g class="inner-stroke-shape" transform="matrix(1.000000, 0.000000, 0.000000, 1.000000, 0.000000, 0.000000)"><defs><clipPath id="inner-stroke-render-6-a8e3a9ae-f863-8071-8006-350547ac55ba-0"><use href="#stroke-shape-render-6-a8e3a9ae-f863-8071-8006-350547ac55ba-0"/></clipPath><rect rx="0" ry="0" x="0" y="0" width="24" height="24" id="stroke-shape-render-6-a8e3a9ae-f863-8071-8006-350547ac55ba-0" style="fill: none; stroke-width: 3; stroke: rgb(0, 0, 0); stroke-opacity: 1;"/></defs><use href="#stroke-shape-render-6-a8e3a9ae-f863-8071-8006-350547ac55ba-0" clip-path="url('#inner-stroke-render-6-a8e3a9ae-f863-8071-8006-350547ac55ba-0')"/></g></g></g><g id="shape-a8e3a9ae-f863-8071-8006-350547ad6162"><g class="fills" id="fills-a8e3a9ae-f863-8071-8006-350547ad6162"><path d="M3.500,15.668C3.950,15.722,4.283,15.928,4.500,16.286C4.826,16.823,6.037,18.812,7.413,18.812L9.500,18.812M15.172,15.299C15.721,16.018,15.995,16.663,15.995,17.235L15.995,21.000M10.370,15.391C9.790,16.028,9.501,16.631,9.501,17.204L9.501,21.000" fill="none" stroke-linejoin="round" stroke-linecap="round" style="fill: none;"/></g><g fill="none" stroke-linejoin="round" stroke-linecap="round" id="strokes-e65be3ee-6db2-8003-8006-3a768672ebeb-a8e3a9ae-f863-8071-8006-350547ad6162" class="strokes"><g class="stroke-shape"><path d="M3.500,15.668C3.950,15.722,4.283,15.928,4.500,16.286C4.826,16.823,6.037,18.812,7.413,18.812L9.500,18.812M15.172,15.299C15.721,16.018,15.995,16.663,15.995,17.235L15.995,21.000M10.370,15.391C9.790,16.028,9.501,16.631,9.501,17.204L9.501,21.000" style="fill: none; stroke-width: 1.5; stroke: rgb(0, 0, 0); stroke-opacity: 1;"/></g></g></g><g id="shape-a8e3a9ae-f863-8071-8006-350547ae4460"><g class="fills" id="fills-a8e3a9ae-f863-8071-8006-350547ae4460"><path d="M15.172,15.299C16.374,15.049,17.465,14.617,18.312,13.983C19.760,12.899,20.500,11.225,20.500,9.572C20.500,8.412,20.060,7.329,19.296,6.412C18.871,5.901,20.115,2.540,19.010,3.053C17.905,3.567,16.285,4.251,15.436,4.000C14.527,3.732,13.536,3.584,12.500,3.584C11.600,3.584,10.734,3.695,9.926,3.901C8.752,4.199,7.630,3.538,6.500,3.053C5.370,2.569,5.987,6.061,5.651,6.475C4.921,7.380,4.500,8.440,4.500,9.572C4.500,11.225,5.395,12.899,6.843,13.982C7.808,14.704,9.017,15.165,10.370,15.392" fill="none" stroke-linejoin="round" stroke-linecap="round" style="fill: none;"/></g><g fill="none" stroke-linejoin="round" stroke-linecap="round" id="strokes-e65be3ee-6db2-8003-8006-3a7686730c21-a8e3a9ae-f863-8071-8006-350547ae4460" class="strokes"><g class="stroke-shape"><path d="M15.172,15.299C16.374,15.049,17.465,14.617,18.312,13.983C19.760,12.899,20.500,11.225,20.500,9.572C20.500,8.412,20.060,7.329,19.296,6.412C18.871,5.901,20.115,2.540,19.010,3.053C17.905,3.567,16.285,4.251,15.436,4.000C14.527,3.732,13.536,3.584,12.500,3.584C11.600,3.584,10.734,3.695,9.926,3.901C8.752,4.199,7.630,3.538,6.500,3.053C5.370,2.569,5.987,6.061,5.651,6.475C4.921,7.380,4.500,8.440,4.500,9.572C4.500,11.225,5.395,12.899,6.843,13.982C7.808,14.704,9.017,15.165,10.370,15.392" style="fill: none; stroke-width: 1.5; stroke: rgb(0, 0, 0); stroke-opacity: 1;"/></g></g></g></g></svg>