<svg width="42" xmlns="http://www.w3.org/2000/svg" height="41" id="screenshot-3bc93dfa-c601-805f-8006-2d6178c0d7fa" viewBox="0 0 42 41" xmlns:xlink="http://www.w3.org/1999/xlink" fill="none" version="1.1"><g id="shape-3bc93dfa-c601-805f-8006-2d6178c0d7fa" width="24" height="24" rx="0" ry="0" style="fill: rgb(0, 0, 0);"><g id="shape-3bc93dfa-c601-805f-8006-2d6178ca3e3f" style="display: none;"><g class="fills" id="fills-3bc93dfa-c601-805f-8006-2d6178ca3e3f"><rect width="42" height="41" x="0" transform="matrix(1.000000, 0.000000, 0.000000, 1.000000, 0.000000, 0.000000)" style="fill: none;" ry="0" fill="none" rx="0" y="0"/></g></g><g id="shape-3bc93dfa-c601-805f-8006-2d6178cce415"><g class="fills" id="fills-3bc93dfa-c601-805f-8006-2d6178cce415"><path d="M6.563,11.104C6.563,10.397,7.150,9.823,7.875,9.823L34.125,9.823C34.850,9.823,35.438,10.397,35.438,11.104C35.438,11.812,34.850,12.385,34.125,12.385L7.875,12.385C7.150,12.385,6.563,11.812,6.563,11.104ZM6.563,20.500C6.563,19.792,7.150,19.219,7.875,19.219L34.125,19.219C34.850,19.219,35.438,19.792,35.438,20.500C35.438,21.208,34.850,21.781,34.125,21.781L7.875,21.781C7.150,21.781,6.563,21.208,6.563,20.500ZM6.563,29.896C6.563,29.188,7.150,28.615,7.875,28.615L34.125,28.615C34.850,28.615,35.438,29.188,35.438,29.896C35.438,30.603,34.850,31.177,34.125,31.177L7.875,31.177C7.150,31.177,6.563,30.603,6.563,29.896Z" style="fill: rgb(0, 0, 0);"/></g></g></g></svg>